<mxfile host="app.diagrams.net" modified="2023-05-18T01:57:51.415Z" agent="Mozilla/5.0 (Windows NT 10.0; Win64; x64) AppleWebKit/537.36 (KHTML, like Gecko) Chrome/112.0.0.0 Safari/537.36 OPR/98.0.0.0" etag="9BrhV-Cz4JT9lq11yiEH" version="21.3.2" type="device">
  <diagram name="PÃ¡gina-1" id="v9_--w1hHCulFpuUxijB">
    <mxGraphModel dx="880" dy="485" grid="1" gridSize="10" guides="1" tooltips="1" connect="1" arrows="1" fold="1" page="1" pageScale="1" pageWidth="827" pageHeight="1169" math="0" shadow="0">
      <root>
        <mxCell id="0" />
        <mxCell id="1" parent="0" />
        <mxCell id="Aq9LVEX5dojz8AcEyIv9-44" style="rounded=0;orthogonalLoop=1;jettySize=auto;html=1;entryX=0.7;entryY=-0.075;entryDx=0;entryDy=0;entryPerimeter=0;endArrow=none;endFill=0;" parent="1" source="Aq9LVEX5dojz8AcEyIv9-1" target="Aq9LVEX5dojz8AcEyIv9-41" edge="1">
          <mxGeometry relative="1" as="geometry" />
        </mxCell>
        <mxCell id="Aq9LVEX5dojz8AcEyIv9-45" style="rounded=0;orthogonalLoop=1;jettySize=auto;html=1;entryX=0.5;entryY=0;entryDx=0;entryDy=0;endArrow=none;endFill=0;" parent="1" source="Aq9LVEX5dojz8AcEyIv9-1" target="Aq9LVEX5dojz8AcEyIv9-42" edge="1">
          <mxGeometry relative="1" as="geometry" />
        </mxCell>
        <mxCell id="Aq9LVEX5dojz8AcEyIv9-46" style="rounded=0;orthogonalLoop=1;jettySize=auto;html=1;entryX=0.5;entryY=0;entryDx=0;entryDy=0;endArrow=none;endFill=0;" parent="1" source="Aq9LVEX5dojz8AcEyIv9-1" target="Aq9LVEX5dojz8AcEyIv9-43" edge="1">
          <mxGeometry relative="1" as="geometry" />
        </mxCell>
        <mxCell id="Aq9LVEX5dojz8AcEyIv9-1" value="CALIFICACIONES" style="rhombus;whiteSpace=wrap;html=1;" parent="1" vertex="1">
          <mxGeometry x="310" y="175" width="130" height="130" as="geometry" />
        </mxCell>
        <mxCell id="Aq9LVEX5dojz8AcEyIv9-33" style="rounded=0;orthogonalLoop=1;jettySize=auto;html=1;entryX=0.636;entryY=1.006;entryDx=0;entryDy=0;entryPerimeter=0;endArrow=none;endFill=0;" parent="1" source="Aq9LVEX5dojz8AcEyIv9-2" target="Aq9LVEX5dojz8AcEyIv9-5" edge="1">
          <mxGeometry relative="1" as="geometry" />
        </mxCell>
        <mxCell id="Aq9LVEX5dojz8AcEyIv9-34" style="rounded=0;orthogonalLoop=1;jettySize=auto;html=1;entryX=1;entryY=1;entryDx=0;entryDy=0;endArrow=none;endFill=0;" parent="1" source="Aq9LVEX5dojz8AcEyIv9-2" target="Aq9LVEX5dojz8AcEyIv9-6" edge="1">
          <mxGeometry relative="1" as="geometry" />
        </mxCell>
        <mxCell id="Aq9LVEX5dojz8AcEyIv9-35" style="rounded=0;orthogonalLoop=1;jettySize=auto;html=1;entryX=0.5;entryY=0;entryDx=0;entryDy=0;endArrow=none;endFill=0;" parent="1" source="Aq9LVEX5dojz8AcEyIv9-2" target="Aq9LVEX5dojz8AcEyIv9-8" edge="1">
          <mxGeometry relative="1" as="geometry" />
        </mxCell>
        <mxCell id="Aq9LVEX5dojz8AcEyIv9-36" style="rounded=0;orthogonalLoop=1;jettySize=auto;html=1;entryX=0.688;entryY=0.094;entryDx=0;entryDy=0;entryPerimeter=0;endArrow=none;endFill=0;" parent="1" source="Aq9LVEX5dojz8AcEyIv9-2" target="Aq9LVEX5dojz8AcEyIv9-7" edge="1">
          <mxGeometry relative="1" as="geometry" />
        </mxCell>
        <mxCell id="Aq9LVEX5dojz8AcEyIv9-38" style="edgeStyle=orthogonalEdgeStyle;rounded=0;orthogonalLoop=1;jettySize=auto;html=1;endArrow=ERoneToMany;endFill=0;exitX=1;exitY=0.5;exitDx=0;exitDy=0;" parent="1" source="Aq9LVEX5dojz8AcEyIv9-2" target="Aq9LVEX5dojz8AcEyIv9-1" edge="1">
          <mxGeometry relative="1" as="geometry" />
        </mxCell>
        <mxCell id="Aq9LVEX5dojz8AcEyIv9-2" value="ALUMNOS" style="rounded=0;whiteSpace=wrap;html=1;" parent="1" vertex="1">
          <mxGeometry x="120" y="210" width="120" height="60" as="geometry" />
        </mxCell>
        <mxCell id="Aq9LVEX5dojz8AcEyIv9-39" style="edgeStyle=orthogonalEdgeStyle;rounded=0;orthogonalLoop=1;jettySize=auto;html=1;endArrow=ERoneToMany;endFill=0;" parent="1" source="Aq9LVEX5dojz8AcEyIv9-3" target="Aq9LVEX5dojz8AcEyIv9-1" edge="1">
          <mxGeometry relative="1" as="geometry" />
        </mxCell>
        <mxCell id="DmeEnXWUrizXepNUNIs_-1" style="rounded=0;orthogonalLoop=1;jettySize=auto;html=1;entryX=0.5;entryY=1;entryDx=0;entryDy=0;endArrow=none;endFill=0;" edge="1" parent="1" source="Aq9LVEX5dojz8AcEyIv9-3" target="Aq9LVEX5dojz8AcEyIv9-10">
          <mxGeometry relative="1" as="geometry">
            <mxPoint x="670" y="180" as="targetPoint" />
          </mxGeometry>
        </mxCell>
        <mxCell id="DmeEnXWUrizXepNUNIs_-4" style="rounded=0;orthogonalLoop=1;jettySize=auto;html=1;entryX=0.5;entryY=1;entryDx=0;entryDy=0;endArrow=none;endFill=0;" edge="1" parent="1" source="Aq9LVEX5dojz8AcEyIv9-3" target="DmeEnXWUrizXepNUNIs_-3">
          <mxGeometry relative="1" as="geometry" />
        </mxCell>
        <mxCell id="DmeEnXWUrizXepNUNIs_-19" style="edgeStyle=orthogonalEdgeStyle;rounded=0;orthogonalLoop=1;jettySize=auto;html=1;endArrow=ERoneToMany;endFill=0;" edge="1" parent="1" source="Aq9LVEX5dojz8AcEyIv9-3" target="DmeEnXWUrizXepNUNIs_-11">
          <mxGeometry relative="1" as="geometry" />
        </mxCell>
        <mxCell id="Aq9LVEX5dojz8AcEyIv9-3" value="ASIGNATURAS" style="rounded=0;whiteSpace=wrap;html=1;" parent="1" vertex="1">
          <mxGeometry x="510" y="210" width="120" height="60" as="geometry" />
        </mxCell>
        <mxCell id="Aq9LVEX5dojz8AcEyIv9-5" value="nombre" style="ellipse;whiteSpace=wrap;html=1;" parent="1" vertex="1">
          <mxGeometry x="135" y="130" width="70" height="30" as="geometry" />
        </mxCell>
        <mxCell id="Aq9LVEX5dojz8AcEyIv9-6" value="apellido" style="ellipse;whiteSpace=wrap;html=1;" parent="1" vertex="1">
          <mxGeometry x="30" y="190" width="70" height="30" as="geometry" />
        </mxCell>
        <mxCell id="Aq9LVEX5dojz8AcEyIv9-7" value="cod_alumno" style="ellipse;whiteSpace=wrap;html=1;" parent="1" vertex="1">
          <mxGeometry x="30" y="260" width="70" height="30" as="geometry" />
        </mxCell>
        <mxCell id="Aq9LVEX5dojz8AcEyIv9-8" value="domicilio" style="ellipse;whiteSpace=wrap;html=1;" parent="1" vertex="1">
          <mxGeometry x="146" y="307" width="70" height="30" as="geometry" />
        </mxCell>
        <mxCell id="Aq9LVEX5dojz8AcEyIv9-9" value="nombre" style="ellipse;whiteSpace=wrap;html=1;" parent="1" vertex="1">
          <mxGeometry x="550" y="90" width="70" height="30" as="geometry" />
        </mxCell>
        <mxCell id="Aq9LVEX5dojz8AcEyIv9-10" value="curso" style="ellipse;whiteSpace=wrap;html=1;" parent="1" vertex="1">
          <mxGeometry x="650" y="140" width="70" height="30" as="geometry" />
        </mxCell>
        <mxCell id="Aq9LVEX5dojz8AcEyIv9-30" value="" style="endArrow=none;html=1;rounded=0;entryX=0.5;entryY=1;entryDx=0;entryDy=0;exitX=0.63;exitY=0.023;exitDx=0;exitDy=0;exitPerimeter=0;" parent="1" source="Aq9LVEX5dojz8AcEyIv9-3" target="Aq9LVEX5dojz8AcEyIv9-9" edge="1">
          <mxGeometry width="50" height="50" relative="1" as="geometry">
            <mxPoint x="570" y="210" as="sourcePoint" />
            <mxPoint x="620" y="160" as="targetPoint" />
          </mxGeometry>
        </mxCell>
        <mxCell id="Aq9LVEX5dojz8AcEyIv9-41" value="cod_alumno" style="ellipse;whiteSpace=wrap;html=1;" parent="1" vertex="1">
          <mxGeometry x="230" y="335" width="83" height="40" as="geometry" />
        </mxCell>
        <mxCell id="Aq9LVEX5dojz8AcEyIv9-42" value="cod_asignatura" style="ellipse;whiteSpace=wrap;html=1;" parent="1" vertex="1">
          <mxGeometry x="327" y="335" width="93" height="40" as="geometry" />
        </mxCell>
        <mxCell id="Aq9LVEX5dojz8AcEyIv9-43" value="nota" style="ellipse;whiteSpace=wrap;html=1;" parent="1" vertex="1">
          <mxGeometry x="429" y="335" width="80" height="40" as="geometry" />
        </mxCell>
        <mxCell id="Aq9LVEX5dojz8AcEyIv9-47" value="N:M" style="text;html=1;strokeColor=none;fillColor=none;align=center;verticalAlign=middle;whiteSpace=wrap;rounded=0;" parent="1" vertex="1">
          <mxGeometry x="345" y="140" width="60" height="30" as="geometry" />
        </mxCell>
        <mxCell id="Aq9LVEX5dojz8AcEyIv9-48" value="1" style="text;html=1;strokeColor=none;fillColor=none;align=center;verticalAlign=middle;whiteSpace=wrap;rounded=0;fontSize=9;" parent="1" vertex="1">
          <mxGeometry x="240" y="220" width="30" height="20" as="geometry" />
        </mxCell>
        <mxCell id="Aq9LVEX5dojz8AcEyIv9-49" value="N" style="text;html=1;strokeColor=none;fillColor=none;align=center;verticalAlign=middle;whiteSpace=wrap;rounded=0;fontSize=9;" parent="1" vertex="1">
          <mxGeometry x="280" y="220" width="30" height="20" as="geometry" />
        </mxCell>
        <mxCell id="Aq9LVEX5dojz8AcEyIv9-50" value="M" style="text;html=1;strokeColor=none;fillColor=none;align=center;verticalAlign=middle;whiteSpace=wrap;rounded=0;fontSize=9;" parent="1" vertex="1">
          <mxGeometry x="441" y="220" width="30" height="20" as="geometry" />
        </mxCell>
        <mxCell id="Aq9LVEX5dojz8AcEyIv9-51" value="1" style="text;html=1;strokeColor=none;fillColor=none;align=center;verticalAlign=middle;whiteSpace=wrap;rounded=0;fontSize=9;" parent="1" vertex="1">
          <mxGeometry x="481" y="220" width="30" height="20" as="geometry" />
        </mxCell>
        <mxCell id="DmeEnXWUrizXepNUNIs_-8" style="rounded=0;orthogonalLoop=1;jettySize=auto;html=1;entryX=0.671;entryY=-0.033;entryDx=0;entryDy=0;entryPerimeter=0;endArrow=none;endFill=0;" edge="1" parent="1" source="DmeEnXWUrizXepNUNIs_-2" target="DmeEnXWUrizXepNUNIs_-5">
          <mxGeometry relative="1" as="geometry" />
        </mxCell>
        <mxCell id="DmeEnXWUrizXepNUNIs_-9" style="rounded=0;orthogonalLoop=1;jettySize=auto;html=1;entryX=0.5;entryY=0;entryDx=0;entryDy=0;endArrow=none;endFill=0;" edge="1" parent="1" source="DmeEnXWUrizXepNUNIs_-2" target="DmeEnXWUrizXepNUNIs_-6">
          <mxGeometry relative="1" as="geometry" />
        </mxCell>
        <mxCell id="DmeEnXWUrizXepNUNIs_-10" style="rounded=0;orthogonalLoop=1;jettySize=auto;html=1;endArrow=none;endFill=0;" edge="1" parent="1" source="DmeEnXWUrizXepNUNIs_-2" target="DmeEnXWUrizXepNUNIs_-7">
          <mxGeometry relative="1" as="geometry" />
        </mxCell>
        <mxCell id="DmeEnXWUrizXepNUNIs_-18" style="edgeStyle=orthogonalEdgeStyle;rounded=0;orthogonalLoop=1;jettySize=auto;html=1;endArrow=ERoneToMany;endFill=0;" edge="1" parent="1" source="DmeEnXWUrizXepNUNIs_-2" target="DmeEnXWUrizXepNUNIs_-11">
          <mxGeometry relative="1" as="geometry" />
        </mxCell>
        <mxCell id="DmeEnXWUrizXepNUNIs_-2" value="CARRERAS" style="rounded=0;whiteSpace=wrap;html=1;" vertex="1" parent="1">
          <mxGeometry x="510" y="558" width="120" height="60" as="geometry" />
        </mxCell>
        <mxCell id="DmeEnXWUrizXepNUNIs_-3" value="cod_asig" style="ellipse;whiteSpace=wrap;html=1;" vertex="1" parent="1">
          <mxGeometry x="461" y="140" width="70" height="30" as="geometry" />
        </mxCell>
        <mxCell id="DmeEnXWUrizXepNUNIs_-5" value="cod_carrera" style="ellipse;whiteSpace=wrap;html=1;" vertex="1" parent="1">
          <mxGeometry x="424" y="627" width="70" height="30" as="geometry" />
        </mxCell>
        <mxCell id="DmeEnXWUrizXepNUNIs_-6" value="nombre" style="ellipse;whiteSpace=wrap;html=1;" vertex="1" parent="1">
          <mxGeometry x="510" y="650" width="120" height="60" as="geometry" />
        </mxCell>
        <mxCell id="DmeEnXWUrizXepNUNIs_-7" value="duracion" style="ellipse;whiteSpace=wrap;html=1;" vertex="1" parent="1">
          <mxGeometry x="645" y="635" width="70" height="30" as="geometry" />
        </mxCell>
        <mxCell id="DmeEnXWUrizXepNUNIs_-16" style="rounded=0;orthogonalLoop=1;jettySize=auto;html=1;endArrow=none;endFill=0;" edge="1" parent="1" source="DmeEnXWUrizXepNUNIs_-11" target="DmeEnXWUrizXepNUNIs_-14">
          <mxGeometry relative="1" as="geometry" />
        </mxCell>
        <mxCell id="DmeEnXWUrizXepNUNIs_-17" style="rounded=0;orthogonalLoop=1;jettySize=auto;html=1;entryX=0;entryY=1;entryDx=0;entryDy=0;endArrow=none;endFill=0;" edge="1" parent="1" source="DmeEnXWUrizXepNUNIs_-11" target="DmeEnXWUrizXepNUNIs_-15">
          <mxGeometry relative="1" as="geometry" />
        </mxCell>
        <mxCell id="DmeEnXWUrizXepNUNIs_-11" value="ASIGNATURAS_&lt;br&gt;ASOCIADAS" style="rhombus;whiteSpace=wrap;html=1;" vertex="1" parent="1">
          <mxGeometry x="500" y="360" width="140" height="140" as="geometry" />
        </mxCell>
        <mxCell id="DmeEnXWUrizXepNUNIs_-14" value="cod_carrera" style="ellipse;whiteSpace=wrap;html=1;" vertex="1" parent="1">
          <mxGeometry x="670" y="373" width="70" height="30" as="geometry" />
        </mxCell>
        <mxCell id="DmeEnXWUrizXepNUNIs_-15" value="cod_asig" style="ellipse;whiteSpace=wrap;html=1;" vertex="1" parent="1">
          <mxGeometry x="670" y="453" width="70" height="30" as="geometry" />
        </mxCell>
        <mxCell id="DmeEnXWUrizXepNUNIs_-20" value="N:M" style="text;html=1;strokeColor=none;fillColor=none;align=center;verticalAlign=middle;whiteSpace=wrap;rounded=0;" vertex="1" parent="1">
          <mxGeometry x="448" y="415" width="60" height="30" as="geometry" />
        </mxCell>
        <mxCell id="DmeEnXWUrizXepNUNIs_-21" value="1" style="text;html=1;strokeColor=none;fillColor=none;align=center;verticalAlign=middle;whiteSpace=wrap;rounded=0;fontSize=9;" vertex="1" parent="1">
          <mxGeometry x="570" y="270" width="30" height="20" as="geometry" />
        </mxCell>
        <mxCell id="DmeEnXWUrizXepNUNIs_-23" value="N" style="text;html=1;strokeColor=none;fillColor=none;align=center;verticalAlign=middle;whiteSpace=wrap;rounded=0;fontSize=9;" vertex="1" parent="1">
          <mxGeometry x="570" y="339" width="30" height="20" as="geometry" />
        </mxCell>
        <mxCell id="DmeEnXWUrizXepNUNIs_-24" value="M" style="text;html=1;strokeColor=none;fillColor=none;align=center;verticalAlign=middle;whiteSpace=wrap;rounded=0;fontSize=9;" vertex="1" parent="1">
          <mxGeometry x="570" y="500" width="30" height="20" as="geometry" />
        </mxCell>
        <mxCell id="DmeEnXWUrizXepNUNIs_-25" value="1" style="text;html=1;strokeColor=none;fillColor=none;align=center;verticalAlign=middle;whiteSpace=wrap;rounded=0;fontSize=9;" vertex="1" parent="1">
          <mxGeometry x="570" y="538" width="30" height="20" as="geometry" />
        </mxCell>
      </root>
    </mxGraphModel>
  </diagram>
</mxfile>
